<svg xmlns="http://www.w3.org/2000/svg" xmlns:xlink="http://www.w3.org/1999/xlink" width="400" zoomAndPan="magnify" viewBox="0 0 300 374.999991" height="500" preserveAspectRatio="xMidYMid meet" version="1.2"><defs><clipPath id="52c497c6c1"><path d="M 68.296875 143 L 87.796875 143 L 87.796875 162.160156 L 68.296875 162.160156 Z M 68.296875 143 "/></clipPath><clipPath id="513cfc17e3"><path d="M 35 3 L 264.984375 3 L 264.984375 375 L 35 375 Z M 35 3 "/></clipPath></defs><g id="bfb16eb075"><g clip-rule="nonzero" clip-path="url(#52c497c6c1)"><path style=" stroke:none;fill-rule:nonzero;fill:#000000;fill-opacity:1;" d="M 76.003906 145.269531 C 74.765625 146.503906 74.085938 148.148438 74.085938 149.898438 C 74.085938 151.148438 74.433594 152.34375 75.085938 153.375 L 73.878906 154.585938 C 73.761719 154.542969 73.640625 154.523438 73.515625 154.523438 C 73.222656 154.523438 72.949219 154.636719 72.742188 154.847656 L 68.730469 158.855469 C 68.300781 159.285156 68.300781 159.980469 68.730469 160.410156 L 70.117188 161.796875 C 70.324219 162.003906 70.601562 162.117188 70.894531 162.117188 C 71.1875 162.117188 71.460938 162.003906 71.671875 161.796875 L 75.679688 157.785156 C 75.988281 157.480469 76.074219 157.035156 75.941406 156.648438 L 77.152344 155.441406 C 78.210938 156.105469 79.421875 156.4375 80.628906 156.4375 C 82.304688 156.4375 83.980469 155.800781 85.257812 154.523438 C 87.808594 151.972656 87.808594 147.820312 85.257812 145.269531 C 82.707031 142.71875 78.554688 142.71875 76.003906 145.269531 Z M 70.890625 161.023438 L 69.503906 159.628906 L 73.519531 155.617188 L 74.910156 157.003906 Z M 75.246094 155.800781 L 74.726562 155.277344 L 75.75 154.257812 C 75.832031 154.347656 75.914062 154.4375 76.003906 154.523438 C 76.089844 154.609375 76.179688 154.695312 76.269531 154.777344 Z M 84.484375 153.75 C 82.359375 155.878906 78.902344 155.878906 76.773438 153.75 C 75.746094 152.722656 75.179688 151.351562 75.179688 149.898438 C 75.179688 148.441406 75.746094 147.070312 76.773438 146.042969 C 77.839844 144.980469 79.234375 144.449219 80.628906 144.449219 C 82.027344 144.449219 83.421875 144.980469 84.484375 146.042969 C 86.609375 148.167969 86.609375 151.625 84.484375 153.75 Z M 84.484375 153.75 "/></g><g clip-rule="nonzero" clip-path="url(#513cfc17e3)"><path style=" stroke:none;fill-rule:evenodd;fill:#c92a2a;fill-opacity:1;" d="M 150.25 375 C 141.75 333.214844 126.757812 298.441406 108.605469 266.21875 C 95.140625 242.3125 79.539062 220.25 65.105469 197.066406 C 60.289062 189.328125 56.128906 181.152344 51.5 173.121094 C 42.242188 157.0625 34.734375 138.445312 35.210938 114.292969 C 35.675781 90.695312 42.496094 71.769531 52.324219 56.289062 C 68.488281 30.832031 95.570312 9.964844 131.902344 4.480469 C 161.613281 -0.00390625 189.464844 7.570312 209.214844 19.136719 C 225.355469 28.585938 237.855469 41.207031 247.355469 56.082031 C 257.273438 71.609375 264.101562 89.953125 264.675781 113.878906 C 264.96875 126.140625 262.964844 137.492188 260.140625 146.90625 C 257.28125 156.4375 252.683594 164.40625 248.59375 172.914062 C 240.609375 189.527344 230.601562 204.75 220.554688 219.976562 C 190.632812 265.34375 162.550781 311.605469 150.253906 375 Z M 150.25 375 "/></g><path style=" stroke:none;fill-rule:nonzero;fill:#ffffff;fill-opacity:1;" d="M 190.152344 114.03125 C 190.152344 115.351562 190.085938 116.667969 189.957031 117.976562 C 189.828125 119.289062 189.636719 120.59375 189.378906 121.886719 C 189.121094 123.179688 188.800781 124.457031 188.417969 125.71875 C 188.039062 126.980469 187.59375 128.21875 187.089844 129.4375 C 186.585938 130.65625 186.023438 131.84375 185.402344 133.007812 C 184.78125 134.171875 184.105469 135.300781 183.375 136.394531 C 182.644531 137.492188 181.859375 138.550781 181.023438 139.570312 C 180.1875 140.589844 179.304688 141.5625 178.375 142.496094 C 177.445312 143.429688 176.46875 144.3125 175.453125 145.148438 C 174.433594 145.984375 173.378906 146.769531 172.28125 147.503906 C 171.1875 148.234375 170.058594 148.910156 168.898438 149.53125 C 167.738281 150.15625 166.546875 150.71875 165.332031 151.222656 C 164.117188 151.726562 162.878906 152.171875 161.617188 152.550781 C 160.355469 152.933594 159.082031 153.253906 157.789062 153.511719 C 156.5 153.769531 155.199219 153.964844 153.886719 154.09375 C 152.578125 154.222656 151.261719 154.285156 149.945312 154.285156 C 148.628906 154.285156 147.316406 154.222656 146.003906 154.09375 C 144.695312 153.964844 143.394531 153.769531 142.101562 153.511719 C 140.8125 153.253906 139.535156 152.933594 138.277344 152.550781 C 137.015625 152.171875 135.777344 151.726562 134.5625 151.222656 C 133.34375 150.71875 132.15625 150.15625 130.996094 149.53125 C 129.832031 148.910156 128.703125 148.234375 127.609375 147.503906 C 126.515625 146.769531 125.457031 145.984375 124.441406 145.148438 C 123.421875 144.3125 122.449219 143.429688 121.519531 142.496094 C 120.585938 141.5625 119.703125 140.589844 118.867188 139.570312 C 118.03125 138.550781 117.25 137.492188 116.519531 136.394531 C 115.785156 135.300781 115.109375 134.171875 114.488281 133.007812 C 113.867188 131.84375 113.304688 130.65625 112.800781 129.4375 C 112.296875 128.21875 111.855469 126.980469 111.472656 125.71875 C 111.089844 124.457031 110.769531 123.179688 110.515625 121.886719 C 110.257812 120.59375 110.066406 119.289062 109.9375 117.976562 C 109.804688 116.667969 109.742188 115.351562 109.742188 114.03125 C 109.742188 112.714844 109.804688 111.398438 109.9375 110.085938 C 110.066406 108.773438 110.257812 107.472656 110.515625 106.179688 C 110.769531 104.886719 111.089844 103.609375 111.472656 102.347656 C 111.855469 101.085938 112.296875 99.847656 112.800781 98.628906 C 113.304688 97.410156 113.867188 96.21875 114.488281 95.058594 C 115.109375 93.894531 115.785156 92.765625 116.519531 91.667969 C 117.25 90.574219 118.03125 89.515625 118.867188 88.496094 C 119.703125 87.476562 120.585938 86.5 121.519531 85.570312 C 122.449219 84.636719 123.421875 83.753906 124.441406 82.917969 C 125.457031 82.078125 126.515625 81.296875 127.609375 80.5625 C 128.703125 79.832031 129.832031 79.152344 130.996094 78.53125 C 132.15625 77.910156 133.34375 77.347656 134.5625 76.84375 C 135.777344 76.339844 137.015625 75.894531 138.277344 75.511719 C 139.535156 75.128906 140.8125 74.808594 142.101562 74.550781 C 143.394531 74.296875 144.695312 74.101562 146.003906 73.972656 C 147.316406 73.84375 148.628906 73.777344 149.945312 73.777344 C 151.261719 73.777344 152.578125 73.84375 153.886719 73.972656 C 155.199219 74.101562 156.5 74.296875 157.789062 74.550781 C 159.082031 74.808594 160.355469 75.128906 161.617188 75.511719 C 162.878906 75.894531 164.117188 76.339844 165.332031 76.84375 C 166.546875 77.347656 167.738281 77.910156 168.898438 78.53125 C 170.058594 79.152344 171.1875 79.832031 172.28125 80.5625 C 173.378906 81.296875 174.433594 82.078125 175.453125 82.917969 C 176.46875 83.753906 177.445312 84.636719 178.375 85.570312 C 179.304688 86.5 180.1875 87.476562 181.023438 88.496094 C 181.859375 89.515625 182.644531 90.574219 183.375 91.667969 C 184.105469 92.765625 184.78125 93.894531 185.402344 95.058594 C 186.023438 96.21875 186.585938 97.410156 187.089844 98.628906 C 187.59375 99.847656 188.039062 101.085938 188.417969 102.347656 C 188.800781 103.609375 189.121094 104.886719 189.378906 106.179688 C 189.636719 107.472656 189.828125 108.773438 189.957031 110.085938 C 190.085938 111.398438 190.152344 112.714844 190.152344 114.03125 Z M 190.152344 114.03125 "/></g></svg>