<svg xmlns="http://www.w3.org/2000/svg" xmlns:xlink="http://www.w3.org/1999/xlink" width="500" zoomAndPan="magnify" viewBox="0 0 375 112.499997" height="150" preserveAspectRatio="xMidYMid meet" version="1.2"><defs><clipPath id="f5aeea2aba"><path d="M 0.832031 4.589844 L 374.167969 4.589844 L 374.167969 107.410156 L 0.832031 107.410156 Z M 0.832031 4.589844 "/></clipPath><clipPath id="2ea8c45262"><path d="M 10.914062 14.253906 L 159.898438 14.253906 L 159.898438 97.75 L 10.914062 97.75 Z M 10.914062 14.253906 "/></clipPath><clipPath id="01ebd2e0fe"><path d="M 140.707031 47.117188 L 178.789062 47.117188 L 178.789062 73.25 L 140.707031 73.25 Z M 140.707031 47.117188 "/></clipPath><clipPath id="18964a6a47"><path d="M 141.070312 47.117188 L 159.738281 47.117188 L 159.738281 73.25 L 141.070312 73.25 Z M 141.070312 47.117188 "/></clipPath></defs><g id="901b2f3148"><g clip-rule="nonzero" clip-path="url(#f5aeea2aba)"><path style="fill:none;stroke-width:4;stroke-linecap:butt;stroke-linejoin:miter;stroke:#000000;stroke-opacity:1;stroke-miterlimit:4;" d="M 0.00169798 -0.00104242 L 499.995345 -0.00104242 L 499.995345 137.702023 L 0.00169798 137.702023 Z M 0.00169798 -0.00104242 " transform="matrix(0.746681,0,0,0.746681,0.830763,4.590622)"/></g><g style="fill:#000000;fill-opacity:1;"><g transform="translate(181.430341, 74.191108)"><path style="stroke:none" d="M 14.390625 0.359375 C 11.691406 0.359375 9.375 -0.300781 7.4375 -1.625 C 5.5 -2.945312 4.023438 -4.71875 3.015625 -6.9375 C 2.015625 -9.15625 1.515625 -11.554688 1.515625 -14.140625 C 1.515625 -16.734375 2.015625 -19.128906 3.015625 -21.328125 C 4.023438 -23.535156 5.5 -25.300781 7.4375 -26.625 C 9.375 -27.945312 11.691406 -28.609375 14.390625 -28.609375 C 17.671875 -28.609375 20.351562 -27.644531 22.4375 -25.71875 C 24.519531 -23.800781 25.867188 -21.320312 26.484375 -18.28125 L 20.4375 -18.28125 C 20.113281 -19.664062 19.425781 -20.828125 18.375 -21.765625 C 17.320312 -22.703125 16.019531 -23.171875 14.46875 -23.171875 C 12.332031 -23.171875 10.722656 -22.332031 9.640625 -20.65625 C 8.554688 -18.988281 8.015625 -16.816406 8.015625 -14.140625 C 8.015625 -11.421875 8.554688 -9.234375 9.640625 -7.578125 C 10.722656 -5.921875 12.332031 -5.09375 14.46875 -5.09375 C 15.988281 -5.09375 17.265625 -5.546875 18.296875 -6.453125 C 19.328125 -7.359375 20.015625 -8.441406 20.359375 -9.703125 L 26.328125 -9.703125 C 25.742188 -6.765625 24.414062 -4.351562 22.34375 -2.46875 C 20.269531 -0.582031 17.617188 0.359375 14.390625 0.359375 Z M 14.390625 0.359375 "/></g></g><g style="fill:#000000;fill-opacity:1;"><g transform="translate(209.270707, 74.191108)"><path style="stroke:none" d="M 14.46875 0.359375 C 11.664062 0.359375 9.285156 -0.285156 7.328125 -1.578125 C 5.378906 -2.878906 3.914062 -4.617188 2.9375 -6.796875 C 1.96875 -8.972656 1.484375 -11.382812 1.484375 -14.03125 C 1.484375 -16.675781 1.976562 -19.101562 2.96875 -21.3125 C 3.957031 -23.53125 5.425781 -25.300781 7.375 -26.625 C 9.320312 -27.945312 11.6875 -28.609375 14.46875 -28.609375 C 17.195312 -28.609375 19.53125 -27.953125 21.46875 -26.640625 C 23.40625 -25.335938 24.859375 -23.570312 25.828125 -21.34375 C 26.804688 -19.113281 27.296875 -16.660156 27.296875 -13.984375 C 27.296875 -11.316406 26.804688 -8.894531 25.828125 -6.71875 C 24.859375 -4.539062 23.40625 -2.816406 21.46875 -1.546875 C 19.53125 -0.273438 17.195312 0.359375 14.46875 0.359375 Z M 14.421875 -5.203125 C 16.398438 -5.203125 17.929688 -6.046875 19.015625 -7.734375 C 20.097656 -9.421875 20.640625 -11.53125 20.640625 -14.0625 C 20.640625 -16.570312 20.101562 -18.695312 19.03125 -20.4375 C 17.96875 -22.175781 16.429688 -23.046875 14.421875 -23.046875 C 13.066406 -23.046875 11.910156 -22.628906 10.953125 -21.796875 C 10.003906 -20.972656 9.296875 -19.878906 8.828125 -18.515625 C 8.367188 -17.148438 8.140625 -15.664062 8.140625 -14.0625 C 8.140625 -11.582031 8.675781 -9.484375 9.75 -7.765625 C 10.832031 -6.054688 12.390625 -5.203125 14.421875 -5.203125 Z M 14.421875 -5.203125 "/></g></g><g style="fill:#000000;fill-opacity:1;"><g transform="translate(238.192632, 74.191108)"><path style="stroke:none" d="M 2.078125 -28.0625 L 9.34375 -28.0625 L 19.59375 -9.578125 L 19.71875 -9.578125 L 19.71875 -28.0625 L 25.890625 -28.0625 L 25.890625 0.046875 L 18.5625 0.046875 L 8.375 -17.75 L 8.25 -17.75 L 8.25 0.046875 L 2.078125 0.046875 Z M 2.078125 -28.0625 "/></g></g><g style="fill:#000000;fill-opacity:1;"><g transform="translate(266.153163, 74.191108)"><path style="stroke:none" d="M 2.078125 -28.0625 L 9.34375 -28.0625 L 19.59375 -9.578125 L 19.71875 -9.578125 L 19.71875 -28.0625 L 25.890625 -28.0625 L 25.890625 0.046875 L 18.5625 0.046875 L 8.375 -17.75 L 8.25 -17.75 L 8.25 0.046875 L 2.078125 0.046875 Z M 2.078125 -28.0625 "/></g></g><g style="fill:#000000;fill-opacity:1;"><g transform="translate(294.113694, 74.191108)"><path style="stroke:none" d="M 8.375 -22.609375 L 8.375 -16.625 L 19.03125 -16.625 L 19.03125 -11.78125 L 8.375 -11.78125 L 8.375 -5.453125 L 21.046875 -5.453125 L 21.046875 0 L 2.078125 0 L 2.078125 -28.0625 L 21.046875 -28.0625 L 21.046875 -22.609375 Z M 8.375 -22.609375 "/></g></g><g style="fill:#000000;fill-opacity:1;"><g transform="translate(316.78656, 74.191108)"><path style="stroke:none" d="M 14.390625 0.359375 C 11.691406 0.359375 9.375 -0.300781 7.4375 -1.625 C 5.5 -2.945312 4.023438 -4.71875 3.015625 -6.9375 C 2.015625 -9.15625 1.515625 -11.554688 1.515625 -14.140625 C 1.515625 -16.734375 2.015625 -19.128906 3.015625 -21.328125 C 4.023438 -23.535156 5.5 -25.300781 7.4375 -26.625 C 9.375 -27.945312 11.691406 -28.609375 14.390625 -28.609375 C 17.671875 -28.609375 20.351562 -27.644531 22.4375 -25.71875 C 24.519531 -23.800781 25.867188 -21.320312 26.484375 -18.28125 L 20.4375 -18.28125 C 20.113281 -19.664062 19.425781 -20.828125 18.375 -21.765625 C 17.320312 -22.703125 16.019531 -23.171875 14.46875 -23.171875 C 12.332031 -23.171875 10.722656 -22.332031 9.640625 -20.65625 C 8.554688 -18.988281 8.015625 -16.816406 8.015625 -14.140625 C 8.015625 -11.421875 8.554688 -9.234375 9.640625 -7.578125 C 10.722656 -5.921875 12.332031 -5.09375 14.46875 -5.09375 C 15.988281 -5.09375 17.265625 -5.546875 18.296875 -6.453125 C 19.328125 -7.359375 20.015625 -8.441406 20.359375 -9.703125 L 26.328125 -9.703125 C 25.742188 -6.765625 24.414062 -4.351562 22.34375 -2.46875 C 20.269531 -0.582031 17.617188 0.359375 14.390625 0.359375 Z M 14.390625 0.359375 "/></g></g><g style="fill:#000000;fill-opacity:1;"><g transform="translate(344.626926, 74.191108)"><path style="stroke:none" d="M 22.359375 -22.609375 L 14.984375 -22.609375 L 14.984375 0 L 8.78125 0 L 8.78125 -22.609375 L 1.40625 -22.609375 L 1.40625 -28.0625 L 22.359375 -28.0625 Z M 22.359375 -22.609375 "/></g></g><g clip-rule="nonzero" clip-path="url(#2ea8c45262)"><path style=" stroke:none;fill-rule:nonzero;fill:#000000;fill-opacity:1;" d="M 10.914062 14.253906 L 159.96875 14.253906 L 159.96875 97.75 L 10.914062 97.75 Z M 10.914062 14.253906 "/></g><g clip-rule="nonzero" clip-path="url(#01ebd2e0fe)"><path style=" stroke:none;fill-rule:nonzero;fill:#000000;fill-opacity:1;" d="M 168.378906 60.652344 C 169.121094 61.910156 169.492188 63.359375 169.492188 64.851562 C 169.492188 69.472656 165.734375 73.25 161.140625 73.25 L 149.074219 73.25 C 144.480469 73.25 140.722656 69.472656 140.722656 64.851562 C 140.722656 60.511719 144.015625 56.917969 148.195312 56.496094 C 148.285156 57.429688 148.519531 58.363281 148.84375 59.25 C 145.875 59.390625 143.507812 61.816406 143.507812 64.851562 C 143.507812 67.929688 146.011719 70.453125 149.074219 70.453125 L 161.140625 70.453125 C 164.203125 70.453125 166.707031 67.929688 166.707031 64.851562 C 166.707031 61.769531 164.203125 59.25 161.140625 59.25 L 158.355469 59.25 C 156.640625 59.25 155.199219 58.039062 154.78125 56.453125 L 161.140625 56.453125 C 164.109375 56.453125 166.894531 58.085938 168.378906 60.652344 Z M 170.421875 47.117188 L 158.355469 47.117188 C 153.761719 47.117188 150.003906 50.898438 150.003906 55.519531 C 150.003906 56.964844 150.375 58.410156 151.117188 59.71875 C 152.601562 62.285156 155.386719 63.917969 158.355469 63.917969 L 164.710938 63.917969 C 164.296875 62.332031 162.855469 61.117188 161.140625 61.117188 L 158.355469 61.117188 C 155.292969 61.117188 152.789062 58.597656 152.789062 55.519531 C 152.789062 52.4375 155.292969 49.917969 158.355469 49.917969 L 170.421875 49.917969 C 173.484375 49.917969 175.988281 52.4375 175.988281 55.519531 C 175.988281 58.550781 173.621094 60.976562 170.652344 61.117188 C 171.023438 62.003906 171.210938 62.9375 171.300781 63.871094 C 175.476562 63.453125 178.773438 59.859375 178.773438 55.519531 C 178.773438 50.898438 175.015625 47.117188 170.421875 47.117188 Z M 170.421875 47.117188 "/></g><g style="fill:#ffffff;fill-opacity:1;"><g transform="translate(24.925522, 74.191108)"><path style="stroke:none" d="M 19.5625 -3.125 L 19.5625 0 L 3 0 L 3 -28.0625 L 6.5 -28.0625 L 6.453125 -3.125 Z M 19.5625 -3.125 "/></g></g><g style="fill:#ffffff;fill-opacity:1;"><g transform="translate(49.161887, 74.191108)"><path style="stroke:none" d="M 14.75 0.28125 C 12.070312 0.28125 9.78125 -0.332031 7.875 -1.5625 C 5.96875 -2.789062 4.519531 -4.5 3.53125 -6.6875 C 2.539062 -8.882812 2.046875 -11.367188 2.046875 -14.140625 C 2.046875 -16.921875 2.546875 -19.410156 3.546875 -21.609375 C 4.546875 -23.816406 6 -25.539062 7.90625 -26.78125 C 9.820312 -28.03125 12.101562 -28.65625 14.75 -28.65625 C 17.363281 -28.65625 19.617188 -28.03125 21.515625 -26.78125 C 23.421875 -25.539062 24.863281 -23.828125 25.84375 -21.640625 C 26.832031 -19.453125 27.328125 -16.941406 27.328125 -14.109375 C 27.328125 -11.304688 26.832031 -8.820312 25.84375 -6.65625 C 24.863281 -4.488281 23.421875 -2.789062 21.515625 -1.5625 C 19.617188 -0.332031 17.363281 0.28125 14.75 0.28125 Z M 14.703125 -2.921875 C 16.546875 -2.921875 18.148438 -3.394531 19.515625 -4.34375 C 20.878906 -5.289062 21.921875 -6.617188 22.640625 -8.328125 C 23.359375 -10.046875 23.71875 -12 23.71875 -14.1875 C 23.71875 -16.375 23.359375 -18.320312 22.640625 -20.03125 C 21.921875 -21.75 20.878906 -23.085938 19.515625 -24.046875 C 18.148438 -25.003906 16.546875 -25.484375 14.703125 -25.484375 C 12.859375 -25.484375 11.253906 -24.992188 9.890625 -24.015625 C 8.535156 -23.046875 7.492188 -21.707031 6.765625 -20 C 6.046875 -18.289062 5.6875 -16.351562 5.6875 -14.1875 C 5.6875 -12 6.046875 -10.054688 6.765625 -8.359375 C 7.492188 -6.660156 8.535156 -5.328125 9.890625 -4.359375 C 11.253906 -3.398438 12.859375 -2.921875 14.703125 -2.921875 Z M 14.703125 -2.921875 "/></g></g><g style="fill:#ffffff;fill-opacity:1;"><g transform="translate(81.650213, 74.191108)"><path style="stroke:none" d="M 12.265625 0.328125 C 10.097656 0.328125 8.242188 -0.117188 6.703125 -1.015625 C 5.171875 -1.910156 4.015625 -3.066406 3.234375 -4.484375 C 2.460938 -5.898438 2.078125 -7.382812 2.078125 -8.9375 L 2.078125 -9.140625 L 5.890625 -9.140625 L 5.890625 -8.9375 C 5.890625 -8 6.109375 -7.0625 6.546875 -6.125 C 6.992188 -5.195312 7.695312 -4.414062 8.65625 -3.78125 C 9.613281 -3.15625 10.84375 -2.84375 12.34375 -2.84375 C 14.101562 -2.84375 15.554688 -3.296875 16.703125 -4.203125 C 17.859375 -5.117188 18.4375 -6.347656 18.4375 -7.890625 C 18.4375 -9.171875 18.015625 -10.191406 17.171875 -10.953125 C 16.328125 -11.722656 15.253906 -12.238281 13.953125 -12.5 L 9.859375 -13.265625 C 5.160156 -14.304688 2.8125 -16.78125 2.8125 -20.6875 C 2.8125 -22.28125 3.195312 -23.675781 3.96875 -24.875 C 4.738281 -26.082031 5.8125 -27.015625 7.1875 -27.671875 C 8.570312 -28.328125 10.171875 -28.65625 11.984375 -28.65625 C 14.035156 -28.65625 15.796875 -28.238281 17.265625 -27.40625 C 18.742188 -26.582031 19.851562 -25.507812 20.59375 -24.1875 C 21.34375 -22.863281 21.71875 -21.492188 21.71875 -20.078125 L 21.71875 -19.921875 L 17.921875 -19.921875 L 17.921875 -20.046875 C 17.921875 -20.835938 17.722656 -21.65625 17.328125 -22.5 C 16.941406 -23.34375 16.300781 -24.070312 15.40625 -24.6875 C 14.507812 -25.300781 13.328125 -25.609375 11.859375 -25.609375 C 10.179688 -25.609375 8.835938 -25.140625 7.828125 -24.203125 C 6.828125 -23.265625 6.328125 -22.101562 6.328125 -20.71875 C 6.328125 -19.539062 6.710938 -18.578125 7.484375 -17.828125 C 8.265625 -17.085938 9.320312 -16.582031 10.65625 -16.3125 L 14.34375 -15.59375 C 19.5 -14.550781 22.078125 -12.023438 22.078125 -8.015625 C 22.078125 -6.390625 21.671875 -4.945312 20.859375 -3.6875 C 20.046875 -2.425781 18.890625 -1.441406 17.390625 -0.734375 C 15.898438 -0.0234375 14.191406 0.328125 12.265625 0.328125 Z M 12.265625 0.328125 "/></g></g><g style="fill:#ffffff;fill-opacity:1;"><g transform="translate(108.690641, 74.191108)"><path style="stroke:none" d="M 21.765625 -24.921875 L 13.5 -24.921875 L 13.5 0 L 10.0625 0 L 10.0625 -24.921875 L 1.796875 -24.921875 L 1.796875 -28.0625 L 21.765625 -28.0625 Z M 21.765625 -24.921875 "/></g></g><g clip-rule="nonzero" clip-path="url(#18964a6a47)"><path style=" stroke:none;fill-rule:nonzero;fill:#ffffff;fill-opacity:1;" d="M 168.742188 60.574219 C 169.484375 61.828125 169.855469 63.265625 169.855469 64.75 C 169.855469 69.34375 166.097656 73.101562 161.503906 73.101562 L 149.4375 73.101562 C 144.84375 73.101562 141.085938 69.34375 141.085938 64.75 C 141.085938 60.433594 144.378906 56.863281 148.558594 56.445312 C 148.648438 57.371094 148.882812 58.300781 149.207031 59.183594 C 146.238281 59.320312 143.871094 61.734375 143.871094 64.75 C 143.871094 67.8125 146.375 70.320312 149.4375 70.320312 L 161.503906 70.320312 C 164.566406 70.320312 167.070312 67.8125 167.070312 64.75 C 167.070312 61.6875 164.566406 59.183594 161.503906 59.183594 L 158.71875 59.183594 C 157 59.183594 155.5625 57.976562 155.144531 56.398438 L 161.503906 56.398438 C 164.472656 56.398438 167.257812 58.023438 168.742188 60.574219 Z M 170.785156 47.117188 L 158.71875 47.117188 C 154.125 47.117188 150.367188 50.875 150.367188 55.46875 C 150.367188 56.910156 150.738281 58.347656 151.480469 59.644531 C 152.964844 62.199219 155.75 63.824219 158.71875 63.824219 L 165.074219 63.824219 C 164.65625 62.246094 163.21875 61.039062 161.503906 61.039062 L 158.71875 61.039062 C 155.65625 61.039062 153.152344 58.53125 153.152344 55.46875 C 153.152344 52.40625 155.65625 49.902344 158.71875 49.902344 L 170.785156 49.902344 C 173.847656 49.902344 176.351562 52.40625 176.351562 55.46875 C 176.351562 58.484375 173.984375 60.898438 171.015625 61.039062 C 171.386719 61.921875 171.570312 62.847656 171.664062 63.777344 C 175.839844 63.359375 179.136719 59.785156 179.136719 55.46875 C 179.136719 50.875 175.378906 47.117188 170.785156 47.117188 Z M 170.785156 47.117188 "/></g></g></svg>