<svg xmlns="http://www.w3.org/2000/svg" xmlns:xlink="http://www.w3.org/1999/xlink" width="400" zoomAndPan="magnify" viewBox="0 0 300 374.999991" height="500" preserveAspectRatio="xMidYMid meet" version="1.2"><defs><clipPath id="65f2a68aee"><path d="M 22.265625 0 L 278.015625 0 L 278.015625 375 L 22.265625 375 Z M 22.265625 0 "/></clipPath><clipPath id="44ed9ecca1"><path d="M 68.296875 143 L 87.796875 143 L 87.796875 162.160156 L 68.296875 162.160156 Z M 68.296875 143 "/></clipPath></defs><g id="b4c4772c41"><g clip-rule="nonzero" clip-path="url(#65f2a68aee)"><path style=" stroke:none;fill-rule:evenodd;fill:#000000;fill-opacity:1;" d="M 137.316406 369.035156 C 137.320312 369.042969 137.324219 369.042969 150.140625 357.8125 L 137.324219 369.042969 C 140.558594 372.730469 145.230469 374.84375 150.140625 374.84375 C 155.050781 374.84375 159.722656 372.730469 162.957031 369.042969 L 150.140625 357.8125 C 162.957031 369.042969 162.960938 369.042969 162.964844 369.035156 L 162.972656 369.027344 L 162.996094 369 L 163.074219 368.910156 L 163.347656 368.59375 C 163.585938 368.324219 163.921875 367.933594 164.351562 367.429688 C 165.214844 366.417969 166.460938 364.945312 168.03125 363.054688 C 171.171875 359.265625 175.625 353.773438 180.957031 346.875 C 191.597656 333.09375 205.804688 313.597656 220.035156 290.738281 C 248.019531 245.777344 278.015625 184.8125 278.015625 127.890625 C 278.015625 57.34375 220.761719 0.15625 150.140625 0.15625 C 79.515625 0.15625 22.265625 57.34375 22.265625 127.890625 C 22.265625 184.8125 52.265625 245.777344 80.25 290.738281 C 94.476562 313.597656 108.679688 333.09375 119.324219 346.875 C 124.652344 353.773438 129.109375 359.265625 132.25 363.054688 C 133.820312 364.945312 135.066406 366.417969 135.929688 367.429688 C 136.359375 367.933594 136.695312 368.324219 136.933594 368.59375 L 137.207031 368.910156 L 137.285156 369 L 137.308594 369.027344 Z M 150.140625 85.3125 C 140.722656 85.3125 133.089844 92.9375 133.089844 102.34375 L 133.089844 119.375 L 98.992188 119.375 L 98.992188 102.34375 C 98.992188 74.125 121.890625 51.25 150.140625 51.25 C 178.390625 51.25 201.289062 74.125 201.289062 102.34375 L 201.289062 119.375 C 201.289062 123.890625 199.492188 128.222656 196.296875 131.417969 L 167.191406 160.492188 L 167.191406 187.5 L 133.089844 187.5 L 133.089844 153.4375 C 133.089844 148.921875 134.886719 144.589844 138.085938 141.394531 L 167.191406 112.320312 L 167.191406 102.34375 C 167.191406 92.9375 159.558594 85.3125 150.140625 85.3125 Z M 133.089844 221.5625 L 133.089844 238.59375 L 167.191406 238.59375 L 167.191406 221.5625 Z M 133.089844 221.5625 "/></g><g clip-rule="nonzero" clip-path="url(#44ed9ecca1)"><path style=" stroke:none;fill-rule:nonzero;fill:#000000;fill-opacity:1;" d="M 76.003906 145.269531 C 74.765625 146.503906 74.085938 148.148438 74.085938 149.898438 C 74.085938 151.148438 74.433594 152.34375 75.085938 153.375 L 73.878906 154.585938 C 73.761719 154.542969 73.640625 154.523438 73.515625 154.523438 C 73.222656 154.523438 72.949219 154.636719 72.742188 154.847656 L 68.730469 158.855469 C 68.300781 159.285156 68.300781 159.980469 68.730469 160.410156 L 70.117188 161.796875 C 70.324219 162.003906 70.601562 162.117188 70.894531 162.117188 C 71.1875 162.117188 71.460938 162.003906 71.671875 161.796875 L 75.679688 157.785156 C 75.988281 157.480469 76.074219 157.035156 75.941406 156.648438 L 77.152344 155.441406 C 78.210938 156.105469 79.421875 156.4375 80.628906 156.4375 C 82.304688 156.4375 83.980469 155.800781 85.257812 154.523438 C 87.808594 151.972656 87.808594 147.820312 85.257812 145.269531 C 82.707031 142.71875 78.554688 142.71875 76.003906 145.269531 Z M 70.890625 161.023438 L 69.503906 159.628906 L 73.519531 155.617188 L 74.910156 157.003906 Z M 75.246094 155.800781 L 74.726562 155.277344 L 75.75 154.257812 C 75.832031 154.347656 75.914062 154.4375 76.003906 154.523438 C 76.089844 154.609375 76.179688 154.695312 76.269531 154.777344 Z M 84.484375 153.75 C 82.359375 155.878906 78.902344 155.878906 76.773438 153.75 C 75.746094 152.722656 75.179688 151.351562 75.179688 149.898438 C 75.179688 148.441406 75.746094 147.070312 76.773438 146.042969 C 77.839844 144.980469 79.234375 144.449219 80.628906 144.449219 C 82.027344 144.449219 83.421875 144.980469 84.484375 146.042969 C 86.609375 148.167969 86.609375 151.625 84.484375 153.75 Z M 84.484375 153.75 "/></g></g></svg>