<svg xmlns="http://www.w3.org/2000/svg" xmlns:xlink="http://www.w3.org/1999/xlink" width="500" zoomAndPan="magnify" viewBox="0 0 375 374.999991" height="500" preserveAspectRatio="xMidYMid meet" version="1.2"><defs><clipPath id="4de9234137"><path d="M 4.222656 3.125 L 372.96875 3.125 L 372.96875 371.875 L 4.222656 371.875 Z M 4.222656 3.125 "/></clipPath><clipPath id="a1c5654683"><path d="M 188.59375 3.125 C 86.769531 3.125 4.222656 85.671875 4.222656 187.5 C 4.222656 289.328125 86.769531 371.875 188.59375 371.875 C 290.421875 371.875 372.96875 289.328125 372.96875 187.5 C 372.96875 85.671875 290.421875 3.125 188.59375 3.125 Z M 188.59375 3.125 "/></clipPath><clipPath id="87e9157b8e"><path d="M 37 120 L 341 120 L 341 255 L 37 255 Z M 37 120 "/></clipPath><clipPath id="58bef054bc"><path d="M 188.59375 -1.09375 L 377.390625 187.703125 L 188.59375 376.5 L -0.207031 187.703125 Z M 188.59375 -1.09375 "/></clipPath><clipPath id="35067dd75d"><path d="M 188.59375 -1.09375 L 377.390625 187.703125 L 188.59375 376.5 L -0.207031 187.703125 Z M 188.59375 -1.09375 "/></clipPath></defs><g id="f32d7f3f5e"><g clip-rule="nonzero" clip-path="url(#4de9234137)"><g clip-rule="nonzero" clip-path="url(#a1c5654683)"><path style=" stroke:none;fill-rule:nonzero;fill:#000000;fill-opacity:1;" d="M 4.222656 3.125 L 372.96875 3.125 L 372.96875 371.875 L 4.222656 371.875 Z M 4.222656 3.125 "/></g></g><g clip-rule="nonzero" clip-path="url(#87e9157b8e)"><g clip-rule="nonzero" clip-path="url(#58bef054bc)"><g clip-rule="nonzero" clip-path="url(#35067dd75d)"><path style=" stroke:none;fill-rule:nonzero;fill:#ffffff;fill-opacity:1;" d="M 272.730469 254.773438 L 205.433594 254.761719 C 168.269531 254.773438 138.132812 224.640625 138.144531 187.476562 C 138.132812 181.632812 139.132812 176.054688 140.515625 170.652344 L 171.789062 170.652344 C 173.28125 170.648438 174.628906 171.136719 176.011719 171.507812 C 173.398438 176.28125 171.789062 181.667969 171.789062 187.476562 C 171.78125 206.035156 186.890625 221.121094 205.433594 221.121094 L 272.71875 221.121094 C 291.285156 221.121094 306.375 206.027344 306.371094 187.46875 C 306.375 168.921875 291.285156 153.832031 272.726562 153.828125 L 248.78125 153.835938 C 242.859375 140.351562 233.414062 128.871094 221.738281 120.183594 L 272.726562 120.183594 C 309.894531 120.1875 340.019531 150.3125 340.023438 187.480469 C 340.019531 224.640625 309.890625 254.769531 272.730469 254.773438 Z M 128.4375 221.125 L 104.488281 221.132812 C 85.941406 221.125 70.84375 206.03125 70.839844 187.480469 C 70.847656 168.921875 85.9375 153.832031 104.496094 153.828125 L 171.789062 153.832031 C 190.351562 153.832031 205.4375 168.917969 205.433594 187.476562 C 205.433594 193.273438 203.824219 198.660156 201.226562 203.4375 C 202.621094 203.8125 203.945312 204.300781 205.433594 204.300781 L 236.699219 204.304688 C 238.105469 198.902344 239.082031 193.328125 239.074219 187.476562 C 239.082031 150.320312 208.945312 120.183594 171.78125 120.183594 L 104.496094 120.183594 C 67.324219 120.191406 37.203125 150.3125 37.195312 187.484375 C 37.203125 224.640625 67.332031 254.769531 104.488281 254.777344 L 155.488281 254.777344 C 143.800781 246.085938 134.363281 234.601562 128.4375 221.125 Z M 128.4375 221.125 "/></g></g></g></g></svg>